<svg id="Main-new-logo" xmlns="http://www.w3.org/2000/svg" xmlns:xlink="http://www.w3.org/1999/xlink" width="100.283" height="62.955" viewBox="0 0 100.283 62.955">
  <defs>
    <linearGradient id="linear-gradient" x1="0.013" y1="0.526" x2="1.02" y2="0.519" gradientUnits="objectBoundingBox">
      <stop offset="0" stop-color="#d9b46e"/>
      <stop offset="1" stop-color="#ad8444"/>
    </linearGradient>
    <clipPath id="clip-path">
      <rect id="Rectangle_380" data-name="Rectangle 380" width="100.283" height="62.955" fill="none"/>
    </clipPath>
    <clipPath id="clip-path-2">
      <path id="Path_663" data-name="Path 663" d="M274.813,19.337a2.168,2.168,0,0,1-.57-.558,2.152,2.152,0,1,1,3.52,0,2.168,2.168,0,0,1-.57.558,2.145,2.145,0,0,1-2.38,0m-3.486-1.792a4.732,4.732,0,0,0,.993,2.854,18.724,18.724,0,0,0,1.877,1.865l-4.108,4.015,1.756,1.812L276,24.029l4.157,4.063,1.756-1.812-4.108-4.015a14.443,14.443,0,0,0,2.087-2.132,4.675,4.675,0,1,0-8.568-2.587" transform="translate(-270.089 -12.869)" fill="url(#linear-gradient)"/>
    </clipPath>
    <clipPath id="clip-path-3">
      <path id="Path_664" data-name="Path 664" d="M198.091,15.784l2.018,1.981-2.018,1.972Zm18.347,1.981,2.018-1.981v3.954ZM193.384,7.625c-.175-.172-.358-.342-.542-.513a4.121,4.121,0,0,1-1.556-2.123,2.153,2.153,0,0,1,3.651-1.837c.652.652.676,2.127.695,3.312,0,.144,0,.284.008.42.023.966,0,1.961-.027,2.928Zm27.524-.741c0-.136.006-.276.008-.42.019-1.185.042-2.66.695-3.312a2.152,2.152,0,0,1,3.651,1.837,4.121,4.121,0,0,1-1.556,2.123c-.184.171-.368.342-.543.513l-2.228,2.188c-.026-.967-.05-1.962-.027-2.928m-1.082-5.517c-1.375,1.375-1.409,3.5-1.434,5.057,0,.137,0,.271-.007.4-.025,1.076,0,2.153.031,3.2.02.732.04,1.49.04,2.227L214.633,16l-1.8,1.768-4.558,4.476-4.558-4.476L201.914,16l-3.823-3.754c0-.737.021-1.494.04-2.227.028-1.042.057-2.119.031-3.2,0-.129-.005-.263-.007-.4-.025-1.554-.059-3.682-1.434-5.057a4.676,4.676,0,0,0-7.933,3.987,6.26,6.26,0,0,0,2.336,3.606c.167.155.333.309.492.465l3.951,3.88v8.9l-1.539,1.5q-.96.939-1.92,1.878c-.2.2-.423.4-.657.612-1.208,1.1-2.712,2.468-2.712,4.619a4.676,4.676,0,0,0,9.352,0V24.208l-2.524,2.46v4.148a2.152,2.152,0,0,1-4.3,0c0-.966.713-1.684,1.887-2.753.24-.219.488-.445.724-.676l1.693-1.657,2.524-2.465,3.819-3.733,6.25,6.257,6.476-6.257,3.819,3.733,2.524,2.465,1.693,1.657c.236.231.484.457.724.676,1.174,1.068,1.887,1.787,1.887,2.753a2.152,2.152,0,0,1-4.3,0V26.669l-2.524-2.46v6.609a4.676,4.676,0,1,0,9.352,0c0-2.151-1.5-3.52-2.712-4.619-.233-.213-.454-.413-.657-.612q-.959-.94-1.92-1.878l-1.539-1.5v-8.9l3.951-3.88c.158-.156.325-.31.492-.465a6.26,6.26,0,0,0,2.336-3.606,4.677,4.677,0,0,0-7.933-3.987" transform="translate(-188.739)" fill="url(#linear-gradient)"/>
    </clipPath>
  </defs>
  <g id="Group_339" data-name="Group 339">
    <g id="Group_338" data-name="Group 338" clip-path="url(#clip-path)">
      <path id="Path_655" data-name="Path 655" d="M16.394,279.992l.08.071v.436l-.071.062a6.507,6.507,0,0,0-1.214.1.552.552,0,0,0-.334.236,1.5,1.5,0,0,0-.111.645q-.013.48-.049,2.713v4.1q0,.89.027,2.01a5.454,5.454,0,0,0,.111,1.3.522.522,0,0,0,.307.267,5.591,5.591,0,0,0,1.263.111l.071.062v.436l-.08.071q-1.45-.08-2.526-.08-.73,0-2.482.08l-.08-.071v-.427l.071-.071a6.484,6.484,0,0,0,1.214-.1.553.553,0,0,0,.334-.236,1.563,1.563,0,0,0,.116-.654q.018-.489.044-2.7v-6.529l-3.069,6.423Q8.86,290.657,8,292.784H7.65q-.5-1.148-.818-1.832L2.58,282.118v6.218q0,.872.022,2.006a5.137,5.137,0,0,0,.111,1.312.561.561,0,0,0,.311.267,5.165,5.165,0,0,0,1.263.107l.071.071v.427l-.08.08-.569-.027q-.881-.045-1.512-.045-.285,0-2.126.071L0,292.534v-.427l.071-.08a6.175,6.175,0,0,0,1.21-.089.563.563,0,0,0,.334-.24,1.418,1.418,0,0,0,.116-.631q.014-.463.04-2.731v-4.074q0-.81-.022-1.97a5.691,5.691,0,0,0-.107-1.343.54.54,0,0,0-.307-.271,5.185,5.185,0,0,0-1.263-.107L0,280.5v-.427l.08-.08q.614.045,1.654.045.979,0,1.708-.045.747,1.726,1.432,3.122l3.371,6.921,3.042-6.342q1.236-2.571,1.663-3.7.854.045,1.681.045.747,0,1.761-.045" transform="translate(0 -233.111)" fill="#003464"/>
      <path id="Path_656" data-name="Path 656" d="M113.706,291.854l-.08-.071v-.463l.08-.071a3.819,3.819,0,0,0,.836-.067.712.712,0,0,0,.334-.231,7.335,7.335,0,0,0,.592-1.134l.934-2.028,2.419-5.479q.685-1.61,1.361-3.22h.578l3.8,8.931.507,1.192q.222.507.512,1.1a3.361,3.361,0,0,0,.4.7.753.753,0,0,0,.276.164,2.959,2.959,0,0,0,.734.067l.071.071v.463l-.071.071q-.943-.08-1.7-.08-1.477.044-2.953.08l-.071-.071v-.463l.071-.071a7.162,7.162,0,0,0,1.245-.084.3.3,0,0,0,.249-.307,1.516,1.516,0,0,0-.125-.516l-1.094-2.713h-5.15l-.97,2.277a2.683,2.683,0,0,0-.258.9.348.348,0,0,0,.24.329,4.066,4.066,0,0,0,1.21.116l.08.071v.463l-.071.071q-1.147-.071-2.01-.071-.979,0-1.975.071m4.056-4.99h4.5l-2.233-5.364Z" transform="translate(-94.601 -232.359)" fill="#003464"/>
      <path id="Path_657" data-name="Path 657" d="M211.864,279.9v.445l-.062.062q-.623.018-.956.053a1.153,1.153,0,0,0-.485.133.63.63,0,0,0-.2.458,7.871,7.871,0,0,0-.049,1l-.018,2.046v6.387a8.775,8.775,0,0,1-.249,2.3,4.5,4.5,0,0,1-.872,1.655,4.6,4.6,0,0,1-1.285,1.13,2.682,2.682,0,0,1-1.312.369,1.621,1.621,0,0,1-.374-.044q.018-.356.027-.712,0-.223-.027-.658l.169-.116a1.57,1.57,0,0,0,.952.338,1.4,1.4,0,0,0,.716-.164.912.912,0,0,0,.4-.445,3.389,3.389,0,0,0,.142-1.027q.027-.747.027-1.281v-7.73l-.018-1.734a12.22,12.22,0,0,0-.054-1.308.832.832,0,0,0-.129-.391.643.643,0,0,0-.32-.16,7.622,7.622,0,0,0-1.187-.1l-.062-.062V279.9l.062-.062q2.25.071,2.553.071t2.553-.071Z" transform="translate(-171.509 -232.978)" fill="#003464"/>
      <path id="Path_658" data-name="Path 658" d="M258.268,279.9l.071-.062q3.051.053,3.905.053,2.917,0,5.195-.053l.045.062a15.149,15.149,0,0,0-.329,2.677l-.053.071h-.436l-.08-.071a1.323,1.323,0,0,0,.009-.142,8.662,8.662,0,0,0-.116-1.441,4.83,4.83,0,0,0-1.552-.324q-.992-.076-1.49-.076-.7,0-1.8.1l-.035,1.423-.027,1.628-.027,1.806q.961.053,1.77.053t1.37-.053a2.308,2.308,0,0,0,.645-.111.373.373,0,0,0,.142-.222,3.345,3.345,0,0,0,.084-.583l.036-.551.071-.071h.409l.071.071q-.018.969-.044,1.948l.044,2-.071.071h-.409l-.071-.071-.062-.534q-.08-.623-.116-.743a.393.393,0,0,0-.165-.209,1.779,1.779,0,0,0-.663-.142q-.534-.053-1.468-.053-.516,0-1.574.044-.045.747-.045,2.491,0,1.868.045,2.749h1.637q2.161,0,2.7-.053a3.565,3.565,0,0,0,1.032-.258q.08-.2.262-.947t.209-.93l.089-.062h.427l.071.062a12.248,12.248,0,0,0-.156,1.334q-.076.952-.076,1.628l-.062.071q-1.7-.053-4.448-.053l-2.419-.018q-.845,0-1.761.071l-.071-.071v-.294l.071-.089a4.773,4.773,0,0,0,.6-.334,6.947,6.947,0,0,0,.125-1.557q.049-1.49.049-2.273v-3.265l-.009-2.019q0-.658-.018-1.072a3.335,3.335,0,0,0-.062-.591.674.674,0,0,0-.1-.249.435.435,0,0,0-.187-.12,2.047,2.047,0,0,0-.44-.085l-.676-.053-.071-.062Z" transform="translate(-215.024 -232.978)" fill="#003464"/>
      <path id="Path_659" data-name="Path 659" d="M335.264,288.015l.071-.071h.436l.071.071a8.231,8.231,0,0,0,.12,1.392,1.135,1.135,0,0,0,.48.534,3.447,3.447,0,0,0,1.076.458,5.279,5.279,0,0,0,1.357.178,4,4,0,0,0,1.694-.347,2.652,2.652,0,0,0,1.17-1.019,2.8,2.8,0,0,0,.418-1.508,2.432,2.432,0,0,0-.2-1.023,1.749,1.749,0,0,0-.56-.7,2.55,2.55,0,0,0-.823-.391q-.463-.129-1.379-.28-.89-.142-1.392-.258a4.742,4.742,0,0,1-1-.356,2.662,2.662,0,0,1-.831-.609,2.781,2.781,0,0,1-.534-.907,3.274,3.274,0,0,1-.2-1.152,3.538,3.538,0,0,1,1.156-2.726,4.408,4.408,0,0,1,3.1-1.063,8.244,8.244,0,0,1,1.686.191,6.837,6.837,0,0,1,1.659.565l.062.107a12.144,12.144,0,0,0-.24,2.331l-.08.071h-.463l-.071-.062q-.018-1.067-.053-1.343t-.809-.685a3.543,3.543,0,0,0-1.681-.409,3.349,3.349,0,0,0-1.414.3,2.071,2.071,0,0,0-1,.952,2.842,2.842,0,0,0-.338,1.325,2.035,2.035,0,0,0,.2.93,1.748,1.748,0,0,0,.529.64,2.276,2.276,0,0,0,.756.351q.431.116,1.579.285a9.39,9.39,0,0,1,2.291.538,2.55,2.55,0,0,1,1.147,1,3.042,3.042,0,0,1,.432,1.655,3.92,3.92,0,0,1-1.543,3.158,5.715,5.715,0,0,1-3.74,1.263,7.458,7.458,0,0,1-3.229-.658l-.053-.116q.089-.56.133-2.615" transform="translate(-279.017 -231.651)" fill="#003464"/>
      <path id="Path_660" data-name="Path 660" d="M412.184,279.833l.08.08q-.08.8-.08,2.793l-.071.071h-.418l-.071-.08-.1-.818a7.586,7.586,0,0,0-.111-.805.381.381,0,0,0-.129-.213,1.6,1.6,0,0,0-.578-.111q-.489-.044-1.094-.045h-1.681q-.071,2.01-.071,2.322v5.186l.018,1.734q.009,1.005.049,1.3a.78.78,0,0,0,.125.391.7.7,0,0,0,.325.16,7.114,7.114,0,0,0,1.192.1l.062.053v.445l-.062.071q-2.278-.071-2.544-.071-.285,0-2.535.071l-.071-.071v-.445l.071-.053a9.264,9.264,0,0,0,1.107-.089.806.806,0,0,0,.365-.138.721.721,0,0,0,.156-.36,7.285,7.285,0,0,0,.062-1.228l.018-1.877v-5.186q0-.142-.071-2.322H404.8q-.819,0-1.414.035t-.689.182a3.219,3.219,0,0,0-.173.956l-.089.818-.08.08h-.409l-.071-.071q-.018-2.144-.08-2.793l.08-.08q1.548.071,5.15.071,3.674,0,5.159-.071" transform="translate(-334.518 -232.978)" fill="#003464"/>
      <path id="Path_661" data-name="Path 661" d="M480.054,279.833l1.112.036q1.094.035,1.432.036.3,0,2.553-.071l.071.062v.445l-.071.062q-.614.018-.947.053a1.152,1.152,0,0,0-.485.133.63.63,0,0,0-.2.458,7.874,7.874,0,0,0-.049,1l-.018,2.046v4.119l.009,1.734a12.009,12.009,0,0,0,.053,1.3.83.83,0,0,0,.129.391.666.666,0,0,0,.325.164,7.04,7.04,0,0,0,1.183.1l.071.053v.445l-.071.071q-.044,0-1.565-.053-.632-.018-.988-.018-.275,0-2.544.071l-.071-.071v-.445l.071-.053a9.343,9.343,0,0,0,1.1-.089.813.813,0,0,0,.369-.138.7.7,0,0,0,.151-.36,8.2,8.2,0,0,0,.067-1.228l.009-1.877v-4.119l-.018-1.734q-.009-1.014-.049-1.308a.807.807,0,0,0-.124-.391.649.649,0,0,0-.325-.16,7.665,7.665,0,0,0-1.183-.1l-.071-.062V279.9Z" transform="translate(-399.616 -232.978)" fill="#003464"/>
      <path id="Path_662" data-name="Path 662" d="M540.361,289.617l-.338.827a9.164,9.164,0,0,1-4.216,1.005,7.456,7.456,0,0,1-5.217-1.823,6.14,6.14,0,0,1-2.006-4.768,6.288,6.288,0,0,1,1-3.545,6.2,6.2,0,0,1,2.642-2.268,8.754,8.754,0,0,1,3.687-.752,11.085,11.085,0,0,1,2.339.249,9.856,9.856,0,0,1,1.93.6l.062.089a11.349,11.349,0,0,0-.383,2.464l-.062.071h-.418l-.071-.071-.089-1.512a4.818,4.818,0,0,0-1.57-.805,6.366,6.366,0,0,0-1.917-.289,5.573,5.573,0,0,0-2.7.645,4.5,4.5,0,0,0-1.85,1.868,6.246,6.246,0,0,0-.658,2.993,6.143,6.143,0,0,0,.774,3.122,5.294,5.294,0,0,0,2.113,2.064,6.5,6.5,0,0,0,3.127.721,7.467,7.467,0,0,0,1.521-.151,5.736,5.736,0,0,0,1.214-.374,5.566,5.566,0,0,0,.93-.542Z" transform="translate(-440.078 -231.696)" fill="#003464"/>
    </g>
  </g>
  <g id="Group_341" data-name="Group 341" transform="translate(45.223 2.155)">
    <g id="Group_340" data-name="Group 340" clip-path="url(#clip-path-2)">
      <rect id="Rectangle_381" data-name="Rectangle 381" width="11.827" height="15.222" transform="translate(0 0)" fill="url(#linear-gradient)"/>
    </g>
  </g>
  <g id="Group_343" data-name="Group 343" transform="translate(31.602)">
    <g id="Group_342" data-name="Group 342" clip-path="url(#clip-path-3)">
      <rect id="Rectangle_382" data-name="Rectangle 382" width="39.397" height="35.949" transform="translate(-0.164 -0.456)" fill="url(#linear-gradient)"/>
    </g>
  </g>
</svg>
