<svg width="118" height="26" viewBox="0 0 118 26" fill="none" xmlns="http://www.w3.org/2000/svg">
<path d="M50.1868 7.24243L50.2542 7.29631V7.64652L50.2003 7.7004C49.8707 7.6944 49.5412 7.72147 49.217 7.78122C49.1064 7.80733 49.01 7.87481 48.9476 7.9698C48.8789 8.13115 48.8512 8.30698 48.8668 8.48165C48.8488 8.73309 48.8354 9.46044 48.8264 10.6637V13.9638C48.8264 14.4487 48.8264 14.9875 48.8399 15.5802C48.8533 16.1728 48.8803 16.5365 48.9342 16.6308C48.9568 16.682 48.9901 16.7277 49.032 16.7649C49.0738 16.8021 49.1231 16.8299 49.1766 16.8463C49.5133 16.9152 49.8566 16.9468 50.2003 16.9406L50.2542 16.981V17.3312L50.1868 17.3986C49.4056 17.3582 48.7321 17.3312 48.1529 17.3312L46.1594 17.3986L46.092 17.3312V16.9945L46.1459 16.9406C46.4756 16.9466 46.805 16.9195 47.1292 16.8598C47.2373 16.8283 47.332 16.762 47.3986 16.6712C47.4648 16.5042 47.4968 16.3256 47.4929 16.1459C47.4929 15.8765 47.5064 15.1491 47.5198 13.9638V8.71063L45.0549 13.883C44.4353 15.1761 43.8965 16.3884 43.4385 17.5333H43.1557C42.8863 16.9137 42.6707 16.4288 42.4956 16.0516L39.0743 8.95309V13.9503C39.0743 14.4218 39.0743 14.9606 39.0878 15.5667C39.1013 16.1728 39.1282 16.5231 39.1821 16.6174C39.2372 16.7189 39.3286 16.7959 39.438 16.8329C39.5458 16.8867 39.896 16.9137 40.4482 16.9271L40.5021 16.981V17.3178L40.4348 17.3851H39.9768L38.7645 17.3447L37.0539 17.3986L37 17.3447V16.981L37.0539 16.9271C37.3791 16.9335 37.7041 16.9065 38.0237 16.8463C38.079 16.8348 38.1314 16.8121 38.1777 16.7797C38.224 16.7473 38.2633 16.7058 38.2931 16.6577C38.3664 16.4976 38.3988 16.3217 38.3874 16.1459C38.4009 15.9035 38.4143 15.1626 38.4278 13.9503V10.6772C38.4278 10.2462 38.4143 9.7074 38.4009 9.08779C38.3874 8.46818 38.3604 8.1045 38.32 8.01021C38.2704 7.90954 38.1834 7.83223 38.0776 7.7947C37.9563 7.74082 37.6196 7.71387 37.0539 7.7004L37 7.64652V7.30978L37.0673 7.24243C37.3906 7.26937 37.8351 7.26938 38.4009 7.26938C38.9666 7.26938 39.3707 7.26937 39.7748 7.24243C40.1654 8.17184 40.556 9.00697 40.9197 9.74781L43.6271 15.3242L46.0786 10.2192C46.7386 8.84534 47.1831 7.84857 47.4121 7.24243C47.87 7.26937 48.328 7.26938 48.7725 7.26938C49.217 7.26938 49.648 7.26937 50.1868 7.24243Z" fill="#003464"/>
<path d="M52.3691 17.3852L52.3018 17.3314V16.9542L52.3691 16.9003C52.5949 16.9072 52.8208 16.8891 53.0426 16.8464C53.1487 16.8109 53.2423 16.7454 53.312 16.6579C53.4937 16.3706 53.6514 16.0687 53.7834 15.7554L54.5377 14.1121L56.4774 9.70751C56.8545 8.84545 57.2182 7.9834 57.5819 7.12134H58.0398L61.0975 14.3007L61.5016 15.257C61.6228 15.5399 61.7575 15.8362 61.9191 16.146C62.0807 16.4558 62.175 16.6579 62.2424 16.7118C62.3036 16.7717 62.3772 16.8177 62.4579 16.8464C62.6524 16.8892 62.8515 16.9073 63.0506 16.9003L63.1045 16.9542V17.3314L63.0506 17.3852C62.5522 17.3448 62.0942 17.3179 61.6901 17.3179L59.306 17.3852L59.2521 17.3314V16.9542L59.306 16.9003C59.8448 16.8869 60.1815 16.8734 60.3162 16.833C60.3733 16.8233 60.425 16.7936 60.4621 16.7491C60.4992 16.7047 60.5191 16.6484 60.5183 16.5905C60.5065 16.4462 60.47 16.305 60.4105 16.173L59.535 13.9909H55.3863L54.6051 15.8228C54.497 16.0473 54.4286 16.2888 54.403 16.5366C54.4025 16.5956 54.4203 16.6533 54.4541 16.7016C54.488 16.7499 54.536 16.7864 54.5916 16.806C54.7263 16.8599 55.0496 16.9003 55.5614 16.9003L55.6288 16.9542V17.3314L55.5749 17.3852C54.9553 17.3448 54.4165 17.3314 53.9585 17.3314C53.5006 17.3314 52.9079 17.3448 52.3691 17.3852ZM55.6288 13.3713H59.2521L57.4606 9.06096L55.6288 13.3713Z" fill="#003464"/>
<path d="M69.4617 7.26946V7.63313L69.4078 7.67355L68.64 7.71395C68.5053 7.73093 68.3737 7.76723 68.2494 7.82171C68.1686 7.87559 68.1147 7.99682 68.0878 8.19887C68.0565 8.46708 68.043 8.73706 68.0473 9.00705V15.7823C68.0631 16.4037 67.9952 17.0244 67.8453 17.6277C67.7159 18.1195 67.4764 18.5755 67.1449 18.9611C66.8667 19.3303 66.5189 19.6415 66.1212 19.8771C65.7956 20.0602 65.4305 20.1619 65.0571 20.1734C64.9569 20.1733 64.8573 20.1597 64.7607 20.133C64.7742 19.9444 64.7742 19.7559 64.7877 19.5673C64.8012 19.3787 64.7742 19.2709 64.7607 19.0285L64.8954 18.9342C65.0813 19.087 65.3077 19.1824 65.5469 19.2087C65.7861 19.235 66.0277 19.1911 66.2424 19.0824C66.3837 18.9995 66.4928 18.8713 66.5522 18.7187C66.6396 18.4538 66.6806 18.1759 66.6734 17.897C66.6869 17.493 66.6869 17.1562 66.6869 16.8599V9.2495C66.6957 8.89878 66.6822 8.54787 66.6465 8.19887C66.6412 8.08738 66.6038 7.97979 66.5387 7.88906C66.4691 7.81918 66.3798 7.77219 66.2828 7.75436C65.9658 7.70938 65.6465 7.6824 65.3265 7.67355L65.2861 7.63313V7.26946L65.3265 7.21558L67.3873 7.26946L69.4347 7.21558L69.4617 7.26946Z" fill="#003464"/>
<path d="M71.792 7.26946L71.8459 7.21558L74.9843 7.25599C76.5468 7.25599 77.9476 7.24252 79.1599 7.21558L79.2003 7.26946C79.0791 7.72743 78.9983 8.44132 78.9309 9.42461L78.8905 9.47849H78.5403L78.473 9.42461C78.484 9.3852 78.4885 9.34425 78.4864 9.30338C78.4896 8.91521 78.4581 8.52753 78.3921 8.14499C77.9919 7.99001 77.5684 7.90349 77.1395 7.88906C76.6141 7.84865 76.21 7.82171 75.9407 7.82171C75.6713 7.82171 75.0921 7.84865 74.4994 7.90253L74.4725 9.04745L74.4455 10.354V11.8087C74.9574 11.8357 75.4288 11.8626 75.8598 11.8626C76.2909 11.8626 76.668 11.8357 76.9643 11.8087C77.142 11.8024 77.3183 11.7753 77.4897 11.7279C77.5421 11.6761 77.5794 11.6109 77.5974 11.5393C77.6369 11.3897 77.6595 11.2361 77.6648 11.0814L77.6917 10.6369L77.7591 10.5695H78.0823L78.1362 10.6369C78.1362 11.1487 78.1227 11.674 78.1093 12.1994L78.1362 13.8157L78.0823 13.8696H77.7591L77.6917 13.8157L77.6513 13.3847C77.5974 13.048 77.5705 12.8459 77.557 12.7786C77.5284 12.713 77.4816 12.6569 77.4223 12.6169C77.355 12.563 77.1799 12.5226 76.8835 12.4957C76.5872 12.4687 76.21 12.4553 75.7117 12.4553L74.4455 12.4957C74.4186 12.8998 74.4051 13.5598 74.4051 14.5027C74.4051 15.4456 74.4186 16.2403 74.4455 16.7117H75.7521C76.9105 16.7117 77.6378 16.6982 77.9342 16.6713C78.2204 16.6345 78.501 16.5622 78.7693 16.4558C78.8097 16.348 78.877 16.0921 78.9713 15.7015C79.0656 15.3109 79.133 15.0415 79.1464 14.9472L79.2138 14.8933H79.564L79.6179 14.9472C79.5531 15.3036 79.5081 15.6633 79.4832 16.0248C79.4428 16.5366 79.4293 16.9676 79.4293 17.3313L79.3754 17.3852C78.473 17.3583 77.2742 17.3448 75.806 17.3448H73.8394C73.3814 17.3448 72.91 17.3583 72.4251 17.3987L72.3712 17.3448V17.1023L72.4251 17.035C72.593 16.9571 72.7551 16.8671 72.91 16.7656C72.9504 16.7387 72.9773 16.3211 73.0043 15.5129C73.0312 14.7047 73.0447 14.1121 73.0447 13.681V9.43808C73.0447 9.08786 73.0312 8.79153 73.0312 8.57601C73.0282 8.41751 73.0102 8.25966 72.9773 8.10457C72.9656 8.03209 72.938 7.9631 72.8965 7.90253C72.8557 7.85608 72.8051 7.81929 72.7483 7.79478L72.3847 7.72743L71.8459 7.68702L71.792 7.6466V7.26946Z" fill="#003464"/>
<path d="M82.245 14.8663L82.2989 14.8124H82.6625L82.7164 14.8663C82.7177 15.2409 82.7492 15.6148 82.8107 15.9843C82.887 16.1689 83.0251 16.3212 83.2013 16.4153C83.4675 16.5848 83.7583 16.712 84.0634 16.7925C84.4198 16.8836 84.7865 16.9289 85.1544 16.9272C85.6232 16.9339 86.0876 16.8373 86.5149 16.6443C86.9025 16.4746 87.2308 16.1933 87.4577 15.8361C87.6844 15.4729 87.8013 15.0519 87.7945 14.6238C87.8009 14.3371 87.7458 14.0524 87.6328 13.7887C87.5345 13.5696 87.3814 13.3794 87.1883 13.2365C86.9837 13.0915 86.756 12.9822 86.5149 12.9132C86.2724 12.8458 85.9087 12.7785 85.4103 12.6977C84.912 12.6169 84.5618 12.5495 84.2924 12.4822C84.0116 12.4243 83.7398 12.3292 83.4842 12.1993C83.2345 12.0758 83.007 11.912 82.8107 11.7144C82.627 11.4953 82.4854 11.2442 82.3931 10.9736C82.2841 10.6806 82.2293 10.3702 82.2315 10.0576C82.2315 9.15514 82.5413 8.42779 83.1609 7.86206C83.7805 7.29634 84.6156 7 85.6528 7C86.1108 7.00524 86.5668 7.05942 87.0132 7.16163C87.4743 7.25459 87.9221 7.40388 88.3467 7.60614L88.4006 7.70042C88.2721 8.31639 88.2044 8.9435 88.1986 9.57271L88.1312 9.62659H87.7675L87.7137 9.58617C87.7147 9.2218 87.6967 8.85763 87.6598 8.49513C87.6463 8.34697 87.4308 8.17186 87.0132 7.94288C86.5972 7.72724 86.1349 7.61627 85.6663 7.6196C85.2716 7.61684 84.881 7.69956 84.5214 7.86206C84.1751 8.01764 83.8941 8.28917 83.7266 8.62983C83.544 8.95497 83.4467 9.32105 83.4438 9.69394C83.4442 9.9554 83.5041 10.2133 83.6189 10.4482C83.7161 10.6491 83.8592 10.8245 84.0364 10.9601C84.222 11.0863 84.4266 11.1819 84.6426 11.243C84.885 11.2968 85.3026 11.3776 85.9222 11.4719C86.7573 11.5932 87.3769 11.7279 87.7675 11.903C88.1485 12.0722 88.4682 12.3543 88.6835 12.7112C88.9254 13.113 89.0469 13.5758 89.0337 14.0446C89.0337 15.0549 88.6161 15.9035 87.7945 16.5769C86.9408 17.2631 85.8722 17.6256 84.7773 17.6006C83.8817 17.614 82.9941 17.4301 82.1776 17.0619L82.1372 16.9676C82.1911 16.6712 82.218 15.9708 82.245 14.8663Z" fill="#003464"/>
<path d="M99.4724 7.21558L99.5397 7.28292C99.4993 7.71395 99.4724 8.46825 99.4724 9.53236L99.4185 9.58624H99.0818L99.0279 9.51889L98.9471 8.85887C98.9296 8.64155 98.8981 8.42559 98.8528 8.21234C98.8417 8.14892 98.8082 8.09157 98.7585 8.05069C98.7046 8.01028 98.5565 7.98335 98.2871 7.95641C97.9961 7.92791 97.7039 7.91442 97.4115 7.91599H96.0511C96.0242 8.99357 95.9972 9.62665 95.9972 9.78828V15.3513C96.0062 15.8901 96.0197 16.2403 96.0376 16.4019C96.032 16.455 96.037 16.5087 96.0523 16.5599C96.0676 16.611 96.0929 16.6587 96.1268 16.7C96.1606 16.7413 96.2022 16.7756 96.2494 16.8007C96.2965 16.8258 96.3481 16.8414 96.4013 16.8464C96.7166 16.9052 97.037 16.9322 97.3576 16.9272L97.4115 16.9676V17.3313L97.3576 17.3852L95.3103 17.3313L93.2763 17.3852L93.2225 17.3313V16.9676L93.2763 16.9272C93.5738 16.9238 93.8707 16.9013 94.1653 16.8599C94.2709 16.8465 94.3722 16.8097 94.4617 16.7521C94.5248 16.6643 94.5664 16.5627 94.5829 16.4558C94.6334 16.1306 94.6514 15.8012 94.6368 15.4725V9.78828C94.6368 9.70747 94.6098 9.08786 94.5829 7.91599H93.5053L92.3739 7.94294C92.0506 7.96988 91.8755 8.01029 91.8216 8.09111C91.7677 8.17192 91.7273 8.42784 91.6734 8.85887L91.6061 9.51889L91.5387 9.58624H91.2155L91.1616 9.53236C91.1481 8.37396 91.1212 7.63314 91.0942 7.28292L91.1616 7.21558C91.9832 7.25599 93.3706 7.26946 95.2968 7.26946C97.223 7.26946 98.6777 7.25599 99.4724 7.21558Z" fill="#003464"/>
<path d="M101.708 7.21558L102.597 7.24251L103.756 7.26946L105.803 7.21558L105.871 7.26946V7.63313L105.803 7.67355L105.049 7.71395C104.914 7.73093 104.783 7.76723 104.658 7.82171C104.577 7.87559 104.524 7.99682 104.497 8.19887C104.465 8.46708 104.452 8.73706 104.456 9.00705V15.3513C104.457 15.7022 104.475 16.0528 104.51 16.4019C104.512 16.5119 104.545 16.6192 104.604 16.7117C104.682 16.7781 104.774 16.8243 104.874 16.8464C105.184 16.9055 105.5 16.9326 105.817 16.9272L105.884 16.9676V17.3313L105.817 17.3852L104.564 17.3448H103.769L101.722 17.3987L101.668 17.3448V16.9811L101.722 16.9407C102.019 16.9373 102.316 16.9148 102.611 16.8733C102.716 16.86 102.818 16.8231 102.907 16.7656C102.976 16.681 103.018 16.5778 103.028 16.4692C103.072 16.1434 103.09 15.8146 103.082 15.486V9.26296C103.082 8.72418 103.069 8.37397 103.055 8.21234C103.044 8.10211 103.007 7.99603 102.948 7.90253C102.876 7.83569 102.787 7.7892 102.692 7.76783C102.375 7.72359 102.055 7.69661 101.735 7.68702L101.681 7.6466V7.28292L101.708 7.21558Z" fill="#003464"/>
<path d="M117.67 16.119L117.401 16.7925C116.35 17.3283 115.186 17.6054 114.006 17.6007C112.282 17.6007 110.881 17.1023 109.817 16.1325C108.753 15.1627 108.201 13.8696 108.201 12.2936C108.179 11.2824 108.461 10.2879 109.009 9.43806C109.525 8.64151 110.259 8.01024 111.124 7.61965C112.061 7.20475 113.076 6.99795 114.101 7.01351C114.73 7.01335 115.358 7.08109 115.973 7.21556C116.508 7.31931 117.032 7.47727 117.535 7.687L117.576 7.76781C117.468 8.02374 117.36 8.69723 117.266 9.74787L117.226 9.80173H116.889L116.821 9.74787L116.754 8.52211C116.372 8.23535 115.944 8.01663 115.488 7.87558C114.99 7.72322 114.473 7.64603 113.952 7.64658C113.197 7.63325 112.45 7.81413 111.784 8.1719C111.148 8.51121 110.628 9.03158 110.289 9.66704C109.938 10.3271 109.763 11.1352 109.763 12.0781C109.748 12.953 109.961 13.8168 110.383 14.5835C110.782 15.2922 111.376 15.8718 112.094 16.2537C112.868 16.6498 113.729 16.8487 114.599 16.8329C115.011 16.8346 115.421 16.794 115.825 16.7117C116.163 16.6447 116.493 16.5408 116.808 16.4019C117.07 16.2867 117.319 16.1421 117.549 15.9709L117.67 16.119Z" fill="#003464"/>
<path d="M10.9 12.304L13.8399 9.42335L16.7798 12.304L18.0245 11.0237L15.1201 8.17864C15.618 7.69261 16.2108 7.254 16.5901 6.66128C16.9565 6.12325 17.1508 5.48662 17.1473 4.8357C17.1473 3.95853 16.7988 3.11729 16.1785 2.49703C15.5583 1.87678 14.717 1.52832 13.8399 1.52832C12.9627 1.52832 12.1215 1.87678 11.5012 2.49703C10.881 3.11729 10.5325 3.95853 10.5325 4.8357C10.5419 5.56535 10.7873 6.27236 11.2319 6.85095C11.6112 7.34883 12.121 7.74003 12.5596 8.17864L9.65527 11.0237L10.9 12.304ZM12.3107 4.8357C12.3089 4.59446 12.3643 4.35623 12.4722 4.14047C12.5801 3.92471 12.7376 3.73755 12.9317 3.59428C13.1257 3.45101 13.351 3.35569 13.589 3.31612C13.8269 3.27654 14.0709 3.29383 14.3009 3.36657C14.5309 3.43931 14.7405 3.56543 14.9124 3.73465C15.0844 3.90386 15.2139 4.11135 15.2903 4.34017C15.3667 4.56899 15.3879 4.81265 15.3522 5.05123C15.3164 5.28981 15.2247 5.51656 15.0846 5.71293C14.9747 5.8664 14.8382 5.9989 14.6815 6.10412C14.4306 6.26593 14.1384 6.35198 13.8399 6.35198C13.5413 6.35198 13.2491 6.26593 12.9982 6.10412C12.8415 5.9989 12.705 5.8664 12.5952 5.71293C12.4116 5.45712 12.3122 5.15054 12.3107 4.8357V4.8357Z" fill="url(#paint0_linear_407_2118)"/>
<path d="M25.7537 18.5513L25.2795 18.1127L23.9281 16.785L22.8375 15.7181V9.42347L25.6351 6.67325L25.9789 6.34133C26.6427 5.7249 27.4607 4.96622 27.6385 3.79263C27.7097 3.28202 27.6622 2.76186 27.4998 2.27256C27.3374 1.78326 27.0644 1.33798 26.702 0.971287C26.3948 0.663397 26.0299 0.419123 25.6281 0.252456C25.2264 0.0857886 24.7957 0 24.3608 0C23.9258 0 23.4952 0.0857886 23.0934 0.252456C22.6917 0.419123 22.3267 0.663397 22.0195 0.971287C21.0475 1.94335 21.0238 3.44885 21.0001 4.55131V4.83582C20.9764 5.5945 21.0001 6.35318 21.0238 7.08815C21.0356 7.60974 21.0475 8.14319 21.0475 8.66478L18.3447 11.332L17.0644 12.5767L13.84 15.7419L10.6156 12.5767L9.33534 11.332L6.63254 8.66478C6.63254 8.14319 6.64439 7.60974 6.65625 7.08815C6.67995 6.35318 6.70366 5.5945 6.67995 4.83582V4.55131C6.65624 3.44885 6.63253 1.94335 5.66047 0.971287C5.35326 0.663397 4.98833 0.419123 4.58659 0.252456C4.18485 0.0857886 3.75418 0 3.31923 0C2.88429 0 2.45362 0.0857886 2.05187 0.252456C1.65013 0.419123 1.2852 0.663397 0.977989 0.971287C0.615598 1.33798 0.342598 1.78326 0.180183 2.27256C0.0177686 2.76186 -0.0296936 3.28202 0.0414891 3.79263C0.219305 4.96622 1.03726 5.7249 1.7011 6.34133L2.04488 6.67325L4.84252 9.42347V15.7181L3.75192 16.785L2.40052 18.1127L1.92634 18.5513C1.07282 19.3219 0.00592735 20.2939 0.00592735 21.8113C-0.0211078 22.2631 0.0445361 22.7156 0.198822 23.1411C0.353107 23.5666 0.592774 23.956 0.903096 24.2854C1.21342 24.6149 1.58784 24.8774 2.00334 25.0568C2.41884 25.2362 2.86664 25.3288 3.31923 25.3288C3.77182 25.3288 4.21962 25.2362 4.63512 25.0568C5.05062 24.8774 5.42505 24.6149 5.73537 24.2854C6.04569 23.956 6.28536 23.5666 6.43964 23.1411C6.59393 22.7156 6.65957 22.2631 6.63254 21.8113V17.1407L4.84252 18.8833V21.8113C4.86118 22.0226 4.83566 22.2356 4.76759 22.4365C4.69951 22.6374 4.59038 22.822 4.44711 22.9785C4.30384 23.135 4.12957 23.2599 3.9354 23.3454C3.74123 23.4309 3.53139 23.475 3.31923 23.475C3.10707 23.475 2.89724 23.4309 2.70306 23.3454C2.50889 23.2599 2.33463 23.135 2.19136 22.9785C2.04809 22.822 1.93895 22.6374 1.87087 22.4365C1.8028 22.2356 1.77728 22.0226 1.79594 21.8113C1.79594 21.1356 2.30568 20.6259 3.13549 19.8672L3.64523 19.393L4.84252 18.2194L6.63254 16.465L9.33534 13.8333L13.757 18.255L18.3447 13.8333L21.0475 16.465L22.8375 18.2194L24.0348 19.393L24.5445 19.8672C25.3743 20.6259 25.8841 21.1356 25.8841 21.8113C25.9027 22.0226 25.8772 22.2356 25.8091 22.4365C25.7411 22.6374 25.6319 22.822 25.4887 22.9785C25.3454 23.135 25.1711 23.2599 24.9769 23.3454C24.7828 23.4309 24.5729 23.475 24.3608 23.475C24.1486 23.475 23.9388 23.4309 23.7446 23.3454C23.5504 23.2599 23.3762 23.135 23.2329 22.9785C23.0896 22.822 22.9805 22.6374 22.9124 22.4365C22.8443 22.2356 22.8188 22.0226 22.8375 21.8113V18.8833L21.0475 17.1407V21.8113C21.0204 22.2631 21.0861 22.7156 21.2404 23.1411C21.3947 23.5666 21.6343 23.956 21.9446 24.2854C22.255 24.6149 22.6294 24.8774 23.0449 25.0568C23.4604 25.2362 23.9082 25.3288 24.3608 25.3288C24.8134 25.3288 25.2612 25.2362 25.6767 25.0568C26.0922 24.8774 26.4666 24.6149 26.7769 24.2854C27.0872 23.956 27.3269 23.5666 27.4812 23.1411C27.6355 22.7156 27.7011 22.2631 27.6741 21.8113C27.6741 20.2939 26.6072 19.3219 25.7537 18.5513ZM3.30145 5.39297L2.91025 5.03734C2.36495 4.5276 1.89078 4.08899 1.8078 3.53183C1.77722 3.31487 1.79363 3.09387 1.85591 2.88379C1.91819 2.67372 2.02489 2.47948 2.16877 2.31423C2.31266 2.14899 2.49037 2.0166 2.68989 1.92602C2.8894 1.83544 3.10605 1.78879 3.32516 1.78924C3.52319 1.78797 3.71949 1.82609 3.90265 1.90139C4.08581 1.97669 4.25217 2.08766 4.39205 2.22785C4.85437 2.69017 4.87808 3.73336 4.88994 4.57502V4.87138C4.91365 5.55893 4.88994 6.25834 4.87809 6.9459L3.30145 5.39297ZM6.63254 13.9755V11.1779L8.05506 12.5767L6.63254 13.9755ZM22.7901 4.87138V4.57502C22.8019 3.73336 22.8256 2.69017 23.2879 2.22785C23.4278 2.08766 23.5942 1.97669 23.7773 1.90139C23.9605 1.82609 24.1568 1.78797 24.3548 1.78924C24.574 1.78879 24.7906 1.83544 24.9901 1.92602C25.1896 2.0166 25.3674 2.14899 25.5112 2.31423C25.6551 2.47948 25.7618 2.67372 25.8241 2.88379C25.8864 3.09387 25.9028 3.31487 25.8722 3.53183C25.7892 4.08899 25.315 4.5276 24.7697 5.03734L24.3786 5.39297L22.8019 6.9459C22.7901 6.25834 22.7664 5.55893 22.7901 4.87138V4.87138ZM19.625 12.5767L21.0475 11.1779V13.9755L19.625 12.5767Z" fill="url(#paint1_linear_407_2118)"/>
<defs>
<linearGradient id="paint0_linear_407_2118" x1="9.6529" y1="6.91259" x2="18.0268" y2="6.91259" gradientUnits="userSpaceOnUse">
<stop offset="0.18" stop-color="#D9B46E"/>
<stop offset="1" stop-color="#AD8444"/>
</linearGradient>
<linearGradient id="paint1_linear_407_2118" x1="-0.00784136" y1="12.656" x2="27.6878" y2="12.656" gradientUnits="userSpaceOnUse">
<stop offset="0.18" stop-color="#D9B46E"/>
<stop offset="1" stop-color="#AD8444"/>
</linearGradient>
</defs>
</svg>
